<?xml version="1.0" encoding="UTF-8"?>
<svg id="Calque_1" data-name="Calque 1" xmlns="http://www.w3.org/2000/svg" viewBox="0 0 500 500">
  <defs>
    <style>
      .cls-1 {
        fill: #f7e7d8;
      }

      .cls-2 {
        fill: #e8623f;
      }

      .cls-3 {
        fill: #1d1d1b;
      }
    </style>
  </defs>
  <path class="cls-2" d="M439.86,113.81l-.09-73.15-69.93,25.58c-35.58-16.3-76.41-25.58-119.83-25.58s-84.25,9.27-119.83,25.58l-69.93-25.58-.09,73.15C22.66,150.42,0,197.99,0,250c0,115.62,111.93,209.34,250,209.34s250-93.73,250-209.34c0-52.01-22.66-99.58-60.14-136.19Z"/>
  <path class="cls-1" d="M429.99,316.7c2.61-7.37,4.04-15.29,4.04-23.55v-115.89c0-39.08-31.76-70.77-70.94-70.77s-70.94,31.68-70.94,70.77v109.74c58.57,3.62,108.22,14.65,137.85,29.7Z"/>
  <path class="cls-1" d="M207.85,287v-109.74c0-39.08-31.76-70.77-70.94-70.77s-70.94,31.68-70.94,70.77v115.89c0,8.26,1.43,16.18,4.04,23.55,29.62-15.05,79.28-26.08,137.85-29.7Z"/>
  <path class="cls-3" d="M404.73,306.39c11.12-7.46,18.43-20.13,18.43-34.5v-68.05c0-14.09-1.92-21.14-9.91-27.11-1.78,1.72-27.91,22.44-29.97,23.94.5-1.98,9.68-35.45,10.32-36.87-3.85-1.17-7.86-1.52-12.1-1.52-23.01,0-41.66,18.6-41.66,41.55v68.05c0,7.57,2.04,14.66,5.58,20.77,22.42,3.48,42.48,8.15,59.3,13.73Z"/>
  <path class="cls-3" d="M195.75,287.87c2.06-4.92,3.2-10.32,3.2-15.98v-68.05c0-14.09-1.92-21.14-9.91-27.11-1.78,1.72-27.91,22.44-29.97,23.94.5-1.98,9.68-35.45,10.32-36.87-3.85-1.17-7.86-1.52-12.1-1.52-23.01,0-41.66,18.6-41.66,41.55v68.05c0,10,3.54,19.17,9.44,26.34,20.9-4.71,44.8-8.26,70.68-10.36Z"/>
</svg>