<svg viewBox="0 0 240 234" xmlns="http://www.w3.org/2000/svg">
  <path fill="#00005B" d="M42.5 0h155C221 0 240 19 240 42.5v149c0 23.5-19 42.5-42.5 42.5h-155C19 234 0 215 0 191.5v-149C0 19 19 0 42.5 0z"/>
  <path fill="#9999FF" d="M116.5 169H72l-9 28c-.2 1-.9 1.5-2 1.5H44c-1.2 0-1.6-.6-1.3-2L84 68.5c.3-1 .5-2 .8-3.3.3-2 .5-4 .5-6 0-.6.4-1 1.2-1h24c.8 0 1.2.2 1.4.8l47 139.5c.3 1 0 1.7-1 1.7h-19c-.7 0-1.2-.3-1.5-1.2l-9-29zm-37.2-22h29c-.7-2.5-1.6-5.5-2.6-8.6-1-3-2-6.5-3-10.2-1-3.6-2-7.3-3-11-1-3.5-1.8-7-2.6-10.2-.8-3.3-1.4-6-2-8.3h-.2c-.8 4.6-2 9.3-3.2 14.3-1.4 5-2.7 10-4.2 15.2-1.4 5.2-2.8 10-4.3 14.2-1.4 4-2.7 7.5-3.9 10.6v4zm86.5-44h-18c-.8 0-1.2-.4-1.2-1.1 0-2.5.3-5.2.9-8.2.5-2.5 1.2-5.2 2-8.2l9-36.5c.2-1 .8-1.4 1.8-1.4h18.5c1 0 1.3.6 1.1 1.6-1.6 8-3.5 17-5.5 26.8-2 9.8-3.8 18.6-5.4 26.5-.3.4-.7.5-1.3.5h-2zm5.7 30c-3.3 0-6-.9-8.3-2.7-2.2-1.8-3.4-4.7-3.4-8.7 0-4.2 1.3-7.4 3.7-9.6 2.4-2.2 5.2-3.3 8.3-3.3 3.5 0 6.4 1.1 8.6 3.3 2.2 2.2 3.3 5.3 3.3 9.4 0 4-1.2 7-3.6 9-2.3 1.7-5.2 2.6-8.6 2.6z"/>
</svg>
