<svg width="24" height="24" viewBox="0 0 24 24" fill="none" xmlns="http://www.w3.org/2000/svg">
<path d="M12.4373 13.131C12.4823 12.3356 12.8736 11.6335 13.4657 11.1371C14.0458 10.6493 14.8247 10.351 15.6799 10.351C16.5306 10.351 17.3093 10.6491 17.8886 11.1371C18.4817 11.6335 18.8706 12.3356 18.9171 13.131C18.9621 13.9466 18.6315 14.7079 18.0536 15.2717C17.4615 15.8436 16.6236 16.2049 15.6799 16.2049C14.7354 16.2049 13.8938 15.8458 13.3054 15.2717C12.7253 14.7081 12.3954 13.951 12.4418 13.1348L12.4373 13.131Z" fill="#235785"/>
<path d="M7.35849 14.8129C7.36374 15.1242 7.46424 15.7298 7.61349 16.2012C7.92887 17.2017 8.46418 18.1273 9.20537 18.9385C9.96699 19.7757 10.9067 20.4488 11.9897 20.9278C13.1284 21.4285 14.3644 21.6848 15.6469 21.6848C16.9294 21.6831 18.1654 21.4223 19.3039 20.9157C20.3869 20.4315 21.3271 19.7592 22.0883 18.9175C22.8334 18.0973 23.3671 17.1724 23.6804 16.1712C23.8373 15.6738 23.9376 15.1604 23.9794 14.6406C24.0184 14.1362 24.0019 13.6272 23.9301 13.1181C23.7897 12.1372 23.4436 11.197 22.9144 10.3592C22.4318 9.58109 21.8052 8.90421 21.0601 8.33178L21.0623 8.33103L13.5707 2.61115C13.564 2.6059 13.558 2.60065 13.5512 2.59615C13.0602 2.22078 12.2305 2.22228 11.6931 2.59765C11.1467 2.97846 11.0837 3.60734 11.5701 4.00315L11.5679 4.00465L14.6957 6.5329L5.1728 6.54246H5.16005C4.37312 6.54321 3.61524 7.05603 3.46693 7.7074C3.31318 8.36759 3.84849 8.91865 4.66918 8.91865L4.66768 8.92165L9.49318 8.91265L0.858803 15.4733C0.848303 15.4815 0.836303 15.4898 0.825803 15.498C0.0129905 16.1157 -0.249322 17.1462 0.262553 17.7938C0.783428 18.4542 1.88743 18.4587 2.70887 17.7975L7.40724 13.9707C7.40724 13.9707 7.33824 14.4878 7.34424 14.7951L7.35849 14.8129ZM19.4635 16.5415C18.4945 17.5217 17.1355 18.0808 15.6709 18.0808C14.2026 18.0831 12.8436 17.5337 11.8744 16.5542C11.4008 16.0744 11.0537 15.528 10.8379 14.9434C10.6269 14.3681 10.5456 13.7534 10.5996 13.143C10.6509 12.5475 10.8285 11.9698 11.1205 11.4482C11.4031 10.9393 11.7936 10.477 12.2717 10.0857C13.2154 9.32478 14.413 8.90815 15.6655 8.90815C16.9234 8.90665 18.1212 9.31578 19.0649 10.0774C19.543 10.4665 19.9321 10.9266 20.2161 11.4355C20.5087 11.957 20.6861 12.5351 20.7362 13.131C20.7896 13.7411 20.7082 14.3555 20.4979 14.9307C20.2829 15.5198 19.9351 16.0662 19.4605 16.546L19.4635 16.5415Z" fill="#E87500"/>
</svg>
