<svg width="24" height="24" viewBox="0 0 24 24" fill="none" xmlns="http://www.w3.org/2000/svg">
<g clip-path="url(#clip0_44_40)">
<path d="M11.1356 0.0284717C11.0449 0.0380342 10.7615 0.0715967 10.5116 0.101034C9.50398 0.215972 8.36136 0.518597 7.35861 0.941034C3.72954 2.45735 0.998232 5.78416 0.24467 9.59997C0.0672949 10.5075 0.0241699 10.9533 0.0241699 12C0.0241699 13.349 0.158232 14.28 0.513545 15.4563C1.67511 19.3057 4.69911 22.3248 8.55842 23.4909C9.71998 23.8417 10.656 23.9758 12 23.9758C13.349 23.9758 14.28 23.8417 15.4564 23.4864C19.3057 22.3248 22.3249 19.3008 23.4909 15.4415C23.8417 14.28 23.9758 13.344 23.9758 12C23.9758 11.4287 23.9473 10.7762 23.9135 10.5358C23.5247 7.76153 22.382 5.42866 20.477 3.52291C18.5756 1.63178 16.2525 0.484847 13.5356 0.0959717C13.1614 0.0430968 11.4285 -0.00527825 11.1356 0.0284717ZM7.22379 7.58847C7.47879 7.66535 7.59804 7.73735 7.77092 7.91003C8.10711 8.25128 8.18398 8.43822 8.18398 8.9516C8.18398 9.33616 8.16936 9.40797 8.05442 9.60935C7.83317 9.9836 7.31979 10.3293 6.96467 10.3387C6.71473 10.344 6.72504 10.2333 6.99842 9.94553C7.36311 9.56622 7.41579 9.42241 7.41579 8.8556C7.41129 8.30866 7.34398 8.12172 7.08973 7.96797C6.87823 7.83841 6.64817 7.84797 6.31198 8.00603C5.43823 8.42416 4.49267 9.81597 4.12348 11.2419C3.63355 13.1426 4.50223 14.6638 5.93267 14.4045C6.35005 14.3276 7.13736 13.9248 7.47879 13.6076C7.76154 13.349 7.76154 13.344 7.79004 13.0226C7.85304 12.35 8.32761 11.6784 8.96192 11.3664C9.25404 11.222 9.32661 11.2082 9.71998 11.2082C10.0942 11.2082 10.1807 11.2273 10.3631 11.3276C10.9438 11.6595 10.8238 12.432 10.1953 12.432C9.83061 12.432 9.64311 12.2445 9.90748 12.1443C10.1668 12.0483 10.07 11.688 9.76836 11.6066C9.41304 11.5151 9.00954 11.7553 8.75529 12.216C8.44779 12.7728 8.43373 13.4355 8.72604 13.7373C9.00954 14.0398 9.36467 13.8003 9.63861 13.1132C9.78223 12.7631 9.98867 12.5756 10.229 12.5756C10.44 12.5756 10.4788 12.7053 10.3871 13.0993C10.2525 13.7087 10.344 13.8669 10.7233 13.6802C10.8478 13.6222 11.0544 13.4883 11.1789 13.3923L11.414 13.2048L11.573 12.3742C11.7459 11.4433 11.8125 11.318 12.1678 11.2515C12.509 11.1885 12.5859 11.3568 12.4607 11.8893L12.3932 12.1875L12.6431 11.9325C13.2334 11.3276 13.9584 11.0302 14.2082 11.28C14.3422 11.414 14.3276 11.5824 14.1358 12.1772C14.0449 12.4607 13.9196 12.9075 13.8626 13.1615C13.7762 13.5453 13.7709 13.6368 13.8195 13.6993C13.9732 13.8815 14.4433 13.694 14.8609 13.286L15.1055 13.0466L15.1348 12.5133C15.1633 11.8989 15.2205 11.6784 15.3838 11.4813C15.5375 11.2991 15.816 11.165 15.9647 11.2031C16.1134 11.2419 16.1134 11.3855 15.9793 11.8082C15.7918 12.3888 15.8115 13.7278 16.0035 13.7278C16.0804 13.7278 16.4735 13.3153 16.7235 12.9697L16.9102 12.7147L16.7615 12.5617C16.5022 12.288 16.44 12.1106 16.44 11.6638C16.44 11.3379 16.4642 11.2177 16.5454 11.0587C16.6802 10.8097 16.8911 10.6275 17.1409 10.5549C17.4045 10.4735 17.7311 10.6076 17.8652 10.8478C18 11.0925 17.9664 11.6396 17.7934 12.0146L17.6689 12.2878H17.8367C18.0673 12.2878 18.1582 12.2306 18.5713 11.8417C18.7873 11.6353 19.037 11.4573 19.2238 11.3709C19.9584 11.0259 20.8228 11.2031 20.9662 11.7311C21.0862 12.1537 20.8228 12.4511 20.3614 12.4173C20.0302 12.3933 19.968 12.3067 20.16 12.1443C20.5055 11.8556 20.16 11.4866 19.6655 11.6207C19.3967 11.693 19.0942 11.9949 18.9362 12.3457C18.6189 13.0466 18.7873 13.872 19.2429 13.872C19.4254 13.872 19.7475 13.5118 19.872 13.1615C20.0207 12.758 20.3327 12.504 20.5678 12.5953C20.6975 12.6431 20.7071 12.7727 20.6257 13.1807C20.5342 13.6275 20.5202 14.045 20.592 14.2368C20.6207 14.3085 20.7071 14.4433 20.789 14.5342C20.942 14.7069 20.9473 14.7693 20.8175 14.8513C20.7553 14.8944 20.6732 14.8755 20.472 14.765C20.1935 14.6207 19.9534 14.3613 19.8669 14.1167L19.8142 13.973L19.6222 14.1167C19.5116 14.1935 19.3389 14.28 19.2384 14.3085C18.84 14.414 18.35 14.1408 18.1202 13.6802C18.0285 13.502 18 12.9793 18.0673 12.7777C18.1055 12.6671 18.1055 12.6671 17.9516 12.744C17.8704 12.7873 17.6975 12.8349 17.5635 12.8495C17.3422 12.8739 17.3085 12.8979 17.0882 13.1762C16.7762 13.5643 16.2238 14.0882 15.9982 14.1988C15.5186 14.4382 15.3604 14.3709 15.2351 13.8763L15.1487 13.5453L14.942 13.7278C14.6784 13.9584 14.1504 14.2368 13.8478 14.3042C13.56 14.3664 13.2525 14.2749 13.1278 14.0829C12.9412 13.7951 13.0035 13.1857 13.3007 12.3647C13.5212 11.7553 13.3631 11.7459 12.8064 12.3266C12.3934 12.7631 12.216 13.0751 12.101 13.56C11.981 14.064 11.8367 14.2462 11.5108 14.3231C11.3137 14.3664 11.222 14.2462 11.261 13.9826L11.2895 13.7709L11.1071 13.8962C10.8478 14.0735 10.5212 14.2368 10.2956 14.2991C10.07 14.3613 9.77267 14.2946 9.70086 14.1693C9.57129 13.949 9.57129 13.949 9.36992 14.1071C8.93267 14.4624 8.30867 14.3613 7.99217 13.8911L7.89092 13.7424L7.57461 14.0353C6.66204 14.8704 5.52017 15.2447 4.67511 14.9853C3.59979 14.6595 3.00504 13.7373 3.01461 12.408C3.01911 11.0735 3.60936 9.66728 4.6033 8.62572C5.16505 8.03978 5.69304 7.69403 6.23079 7.56447C6.61892 7.46847 6.85479 7.47335 7.22379 7.58847Z" fill="#00C4CC"/>
<path d="M16.9534 11.0017C16.8478 11.1071 16.8866 11.5297 17.0209 11.7986C17.0882 11.9377 17.16 12.0483 17.184 12.0483C17.2031 12.0483 17.2462 11.9377 17.28 11.8029C17.4 11.3042 17.184 10.7709 16.9534 11.0017Z" fill="#00C4CC"/>
</g>
<defs>
<clipPath id="clip0_44_40">
<rect width="24" height="24" fill="white"/>
</clipPath>
</defs>
</svg>
