<svg viewBox="0 0 256 256" xmlns="http://www.w3.org/2000/svg">
  <path fill="#F05032" d="M251.2 117.6L138.5 4.8c-6.4-6.4-16.9-6.4-23.3 0l-23.3 23.3 29.5 29.5c6.9-2.3 14.8-.6 20.3 4.9 5.5 5.5 7.2 13.5 4.9 20.4l28.4 28.4c6.9-2.3 14.8-.6 20.4 5 7.8 7.8 7.8 20.4 0 28.2-7.8 7.8-20.4 7.8-28.2 0-5.8-5.8-7.4-14.4-4.6-21.5l-26.5-26.5v69.8c1.9.9 3.6 2.1 5.2 3.7 7.8 7.8 7.8 20.4 0 28.2-7.8 7.8-20.5 7.8-28.2 0-7.8-7.8-7.8-20.4 0-28.2 1.9-1.9 4.2-3.4 6.7-4.4V96.2c-2.4-1-4.7-2.5-6.7-4.4-5.9-5.9-7.4-14.6-4.5-21.8L80.1 41.5 4.8 116.8c-6.4 6.4-6.4 16.9 0 23.3l112.7 112.7c6.4 6.4 16.9 6.4 23.3 0l110.4-110.4c6.4-6.5 6.4-17 0-23.4z"/>
</svg>
