<svg width="24" height="24" viewBox="0 0 24 24" fill="none" xmlns="http://www.w3.org/2000/svg">
<g clip-path="url(#clip0_44_8)">
<path d="M18.375 0H5.625C2.5184 0 0 2.5184 0 5.625V18.375C0 21.4816 2.5184 24 5.625 24H18.375C21.4816 24 24 21.4816 24 18.375V5.625C24 2.5184 21.4816 0 18.375 0Z" fill="#330000"/>
<path d="M11.5999 14.2812H7.87991L7.11988 16.6313C7.09991 16.7213 7.01994 16.7813 6.92994 16.7712H5.04988C4.93991 16.7712 4.90991 16.7112 4.93991 16.5912L8.15994 7.32122C8.18994 7.22128 8.21994 7.11122 8.25988 6.99122C8.29991 6.78122 8.31988 6.56128 8.31988 6.34125C8.30994 6.29128 8.34988 6.24122 8.39994 6.23128H10.9899C11.0699 6.23128 11.1099 6.26128 11.1199 6.31125L14.7699 16.6113C14.7999 16.7213 14.7699 16.7712 14.6699 16.7712H12.5799C12.5099 16.7813 12.4399 16.7313 12.4199 16.6613L11.5999 14.2812ZM8.45994 12.2513H10.9999C10.9399 12.0413 10.8599 11.7912 10.7699 11.5313C10.6799 11.2613 10.5899 10.9713 10.4999 10.6713C10.3999 10.3613 10.3099 10.0613 10.2099 9.75122C10.1099 9.44128 10.0199 9.15122 9.93988 8.86125C9.85991 8.58131 9.78988 8.32125 9.71994 8.08125H9.69988C9.60988 8.51128 9.49991 8.94131 9.35994 9.37125C9.20994 9.85125 9.05994 10.3512 8.89991 10.8513C8.77079 11.3233 8.62403 11.7903 8.45994 12.2513ZM16.9999 7.98122C16.6699 7.99125 16.3499 7.86122 16.1099 7.63125C15.88 7.38122 15.76 7.05122 15.7699 6.71128C15.76 6.37125 15.8899 6.05128 16.1299 5.82122C16.3699 5.59116 16.69 5.47125 17.02 5.47125C17.41 5.47125 17.71 5.59125 17.9299 5.82122C18.1516 6.06365 18.27 6.38295 18.2599 6.71128C18.2699 7.05122 18.1499 7.38122 17.9099 7.63125C17.68 7.87125 17.3399 8.00128 16.9999 7.98122ZM15.88 16.6613V8.96128C15.88 8.86125 15.9199 8.82122 16.0099 8.82122H17.9899C18.0799 8.82122 18.1199 8.87128 18.1199 8.96128V16.6613C18.1199 16.7712 18.0799 16.8213 17.9899 16.8213H16.03C15.9299 16.8213 15.88 16.7613 15.88 16.6613Z" fill="#FF9A00"/>
</g>
<defs>
<clipPath id="clip0_44_8">
<rect width="24" height="24" fill="white"/>
</clipPath>
</defs>
</svg>
