<svg width="25" height="24" viewBox="0 0 25 24" fill="none" xmlns="http://www.w3.org/2000/svg">
<g clip-path="url(#clip0_44_21)">
<path d="M20.498 0H4.08195C1.82863 0 0.00195312 1.82668 0.00195312 4.08V19.8816C0.00195312 22.1349 1.82863 23.9616 4.08195 23.9616H20.498C22.7513 23.9616 24.578 22.1349 24.578 19.8816V4.08C24.578 1.82668 22.7513 0 20.498 0Z" fill="#49021F"/>
<path d="M8.92696 6.26854V16.7704C8.92696 16.8803 8.87749 16.9353 8.77854 16.9353H6.78366C6.6956 16.9353 6.65166 16.8803 6.65186 16.7704V6.26854C6.65186 6.18067 6.7013 6.1367 6.80018 6.13664H8.79506C8.81183 6.13426 8.82892 6.13557 8.84514 6.14047C8.86136 6.14537 8.87632 6.15374 8.88897 6.16501C8.90162 6.17627 8.91167 6.19016 8.91842 6.2057C8.92516 6.22124 8.92844 6.23807 8.92802 6.25501L8.92696 6.26854ZM14.9352 17.0991L14.829 17.1001C14.0702 17.1117 13.3184 16.954 12.6281 16.6386C11.9851 16.341 11.4476 15.8551 11.0867 15.2454C10.722 14.6397 10.5352 13.8848 10.5264 12.9808L10.5261 12.9126C10.5199 12.1559 10.7133 11.411 11.0868 10.7529C11.4611 10.1005 12.007 9.56321 12.6653 9.19933L12.7189 9.17014C13.4331 8.77449 14.2959 8.57667 15.3072 8.57667L15.3285 8.57677L15.3759 8.57782L15.4294 8.57993L15.4892 8.58301L15.5552 8.58713L15.6273 8.59241L15.7902 8.60576L15.8347 8.6096V5.36192C15.8347 5.28505 15.8677 5.24656 15.9336 5.24643H18.011C18.0244 5.2445 18.0381 5.24573 18.051 5.25002C18.0638 5.25431 18.0755 5.26154 18.0851 5.27113C18.0947 5.28073 18.102 5.29243 18.1063 5.3053C18.1105 5.31818 18.1118 5.33188 18.1098 5.34531V15.0888C18.1105 15.2924 18.1187 15.4959 18.1346 15.6988L18.1502 15.9114L18.1639 16.1092L18.1758 16.2923C18.1778 16.3265 18.1695 16.3606 18.1518 16.39C18.1342 16.4195 18.1081 16.4429 18.0769 16.4572C17.541 16.6807 16.9828 16.8464 16.4118 16.9517C15.9246 17.0417 15.4307 17.091 14.9353 17.0991M15.8348 15.0558V10.555C15.7457 10.5309 15.6548 10.5144 15.5629 10.5056C15.4506 10.4943 15.3377 10.4887 15.2248 10.4891C14.8247 10.4851 14.4294 10.5755 14.0708 10.7529C13.7216 10.9266 13.4234 11.1879 13.2053 11.5113C12.9799 11.841 12.8672 12.2751 12.8673 12.8137C12.8593 13.1731 12.918 13.5308 13.0404 13.8688C13.14 14.1411 13.2975 14.3886 13.502 14.5942C13.6978 14.7834 13.9349 14.9245 14.1945 15.0064C14.4687 15.0951 14.7553 15.1397 15.0435 15.1384C15.1973 15.1384 15.3402 15.1328 15.4721 15.1218C15.5774 15.1138 15.6818 15.0965 15.784 15.0699L15.8348 15.0558Z" fill="#FF3366"/>
</g>
<defs>
<clipPath id="clip0_44_21">
<rect width="24.58" height="24" fill="white"/>
</clipPath>
</defs>
</svg>
