<svg viewBox="0 0 256 256" xmlns="http://www.w3.org/2000/svg">
  <rect fill="#F7DF1E" width="256" height="256"/>
  <path d="M67.3 213.9l19.7-11.9c3.8 6.7 7.3 12.4 15.6 12.4 8 0 13-3.1 13-15.2v-82.3h24.2v82.6c0 25-14.7 36.4-36.1 36.4-19.3 0-30.6-10-36.4-22zM152.4 211.4l19.7-11.4c5.2 8.5 12 14.8 24 14.8 10.1 0 16.5-5 16.5-12 0-8.3-6.6-11.3-17.7-16.2l-6.1-2.6c-17.5-7.5-29.2-16.9-29.2-36.7 0-18.3 14-32.2 35.8-32.2 15.5 0 26.7 5.4 34.7 19.6l-19 12.2c-4.2-7.5-8.7-10.4-15.7-10.4-7.2 0-11.7 4.5-11.7 10.4 0 7.3 4.5 10.3 15 14.8l6 2.6c20.7 8.9 32.4 17.9 32.4 38.2 0 21.9-17.2 33.9-40.3 33.9-22.6 0-37.2-10.8-44.4-24.9z"/>
</svg>
