<svg viewBox="0 0 100 100" xmlns="http://www.w3.org/2000/svg">
  <path fill="#000" d="M6.02 5.98C9.54 8.78 11.06 8.64 16.92 8.26l56.86-3.44c1.24 0 .1-.12-1.24 1.14L63 14.14c-1.86 1.48-2.48 1.72-5.2 1.96L14.06 19.92c-2.48.24-2.98-.38-2.36-1.24l4.46-6h.24L6.02 5.98zM10.82 29.04v63.06c0 3.44 1.72 4.58 5.58 4.34l62.06-3.58c3.86-.24 4.34-2.48 4.34-5.18V25.46c0-2.72-1.1-4.1-3.58-3.86l-64.92 3.72c-2.72.24-3.48 1.48-3.48 3.72zm61.82 1.86c.5 2 0 3.96-2 4.2l-2.98.58v46.56c-2.6 1.38-4.96 2.18-6.96 2.18-3.2 0-4.06-1-6.44-4l-19.8-31.08v30.08l6.2 1.38s0 3.96-5.58 3.96l-15.36.86c-.48-1-0-3.44 1.72-3.82l4.58-1.24V42.12l-6.34-.52c-.5-2 .74-4.82 4.1-5.06l16.46-1.1 20.56 31.46V38.56l-5.2-.62c-.48-2.48 1.34-4.34 3.58-4.58l15.46-1.46z"/>
</svg>
