<svg viewBox="0 0 400 298" xmlns="http://www.w3.org/2000/svg">
  <path fill="#00DC82" d="M227.3 273.6H381c4 0 8-.9 11.4-3 3.5-2 6.3-5 8.1-8.5 1.8-3.5 2.5-7.5 2-11.4-.4-4-2-7.7-4.6-10.7L294.4 84.4c-2.8-3.3-6.4-5.8-10.5-7.2-4-1.4-8.4-1.6-12.5-.5-4.2 1-8 3.2-11 6.2-3 3.1-5.1 7-6 11.2l-27.1 179.5z"/>
  <path fill="#003543" d="M2.5 273.6h195.1L132.3 150c-2.8-3.3-6.4-5.8-10.5-7.2-4-1.4-8.4-1.6-12.5-.5-4.2 1-8 3.2-11 6.2-3 3.1-5.1 7-6 11.2L2.4 254.2c-1 3.5-1 7.2-.1 10.7.9 3.6 2.8 6.7 5.4 9.1 2.7 2.5 6 4 9.5 4.5 3.6.4 7.2-.2 10.4-1.7l-25.1-3.2z"/>
  <path fill="#00DC82" d="M324.7 273.6H2.5c-4 0-8-.9-11.4-3-3.5-2-6.3-5-8.1-8.5-1.8-3.5-2.5-7.5-2-11.4.5-4 2-7.7 4.6-10.7L134.3 24.1c2.8-3.3 6.4-5.8 10.5-7.2 4-1.4 8.4-1.6 12.5-.5 4.2 1 8 3.2 11 6.2 3 3.1 5.1 7 6 11.2L227.3 273.6h97.4z" opacity=".5"/>
</svg>
