<svg viewBox="0 0 240 234" xmlns="http://www.w3.org/2000/svg">
  <path fill="#00005B" d="M42.5 0h155C221 0 240 19 240 42.5v149c0 23.5-19 42.5-42.5 42.5h-155C19 234 0 215 0 191.5v-149C0 19 19 0 42.5 0z"/>
  <path fill="#9999FF" d="M54 164V61.2c0-.7.3-1.1 1-1.1 1.7 0 3.3 0 5.6-.1 2.4-.1 5-.1 7.8-.2 2.9-.1 5.9-.1 9.1-.2 3.2 0 6.3-.1 9.3-.1 8.1 0 15 1 20.6 3.1 5 1.7 9.6 4.5 13.4 8.2 3.2 3.2 5.7 7.1 7.3 11.4 1.5 4.1 2.3 8.5 2.3 13 0 8.6-2 15.7-6 21.3-4 5.6-9.6 9.8-16.1 12.2-6.8 2.5-14.3 3.4-22.5 3.4-2.4 0-4 0-5-.1-1.1 0-2.5-.1-4.2-.1v32c.1.7-.4 1.3-1.1 1.4H55.2c-.8 0-1.2-.4-1.2-1.3zm21.8-84.6v33.4c1.6.1 3 .2 4.3.2h5.3c4.2 0 8.2-.6 12-2 3.3-1.1 6.2-3.2 8.3-6 2-2.7 3-6.4 3-10.9 0-3.1-.6-6.2-2-9-1.4-2.7-3.7-4.8-6.5-6.1-3.3-1.6-7.6-2.4-13-2.4-2.6 0-4.8 0-6.6.1-1.8.2-3.3.4-4.8.7zm66.6 32.2v52.6c0 .6.3 1 1 1.2 2.1.6 4.2 1 6.4 1.1 2.2.2 4.1.3 5.5.3 5.3 0 10.1-1 14.4-3.1 4.1-2 7.5-5.2 9.8-9.2 2.4-4.3 3.6-9.8 3.6-16.6 0-4.6-.7-8.8-2-12.6-1.2-3.6-3.1-6.8-5.6-9.5-2.5-2.6-5.6-4.6-9-5.8-3.7-1.3-8-2-13.1-2-3.9 0-7.8.4-11.6 1.2-.6.1-1 .5-1 1.1-.1.2.2 1 .6 1.3zm-1.5-19.3c3.7-.9 7.4-1.5 11.2-1.9 4-.4 7.7-.6 11.1-.6 7.1 0 13.4 1.1 19 3.3 5.4 2.1 10.1 5.3 14 9.2 3.7 3.9 6.6 8.5 8.5 13.6 1.9 5.2 2.9 10.9 2.9 17 0 8-1.4 15-4.3 21.1-2.8 6-6.6 10.9-11.5 14.9-4.8 3.9-10.2 6.8-16.2 8.6-6 1.8-12.3 2.6-19.1 2.6-2.8 0-6-.2-9.4-.5-3.5-.3-7.4-.8-11.7-1.5-.8 0-1.2-.5-1.2-1.3V94c0-.8.4-1.3 1.3-1.5 1.6-.4 3.3-.8 5.4-1.2z"/>
</svg>
